PathFileType  4	(X/Y/Z) C:\Users\antoi\Documents\MyRepositories\mobilecap\ResultsAnalysis
DataRate	CameraRate	NumFrames	NumMarkers	Units	OrigDataRate	OrigDataStartFrame	OrigNumFrames
100.0	100.0	4	51	mm	100.0	86	136
Frame#	Time	r_knee			r_shank_antsup			r_ankle			r_calc			r_5meta			r_toe			L_knee			L_shank_antsup			L_ankle			L_calc			L_5meta			L_toe			r_sh2			r_sh3			r_sh4			L_sh2			L_sh3			r_thigh1			r_thigh2			r_thigh3			r_thigh4			r_thigh5			L_thigh1			L_thigh2			L_thigh3			L_thigh4			r.ASIS			r.PSIS			L.ASIS			L.PSIS			C7			R_Shoulder			L_Shoulder			R_Sternum			L_Sternum			R_humerus			R_elbow_med			R_elbow_lat			R_forearm			R_wrist_radius			R_wrist_ulna			L_humerus			L_elbow_med			L_elbow_lat			L_forearm			L_wrist_radius			L_wrist_ulna			R_HJC			L_HJC			R_HJC_reg			L_HJC_reg			
		X1	Y1	Z1	X2	Y2	Z2	X3	Y3	Z3	X4	Y4	Z4	X5	Y5	Z5	X6	Y6	Z6	X7	Y7	Z7	X8	Y8	Z8	X9	Y9	Z9	X10	Y10	Z10	X11	Y11	Z11	X12	Y12	Z12	X13	Y13	Z13	X14	Y14	Z14	X15	Y15	Z15	X16	Y16	Z16	X17	Y17	Z17	X18	Y18	Z18	X19	Y19	Z19	X20	Y20	Z20	X21	Y21	Z21	X22	Y22	Z22	X23	Y23	Z23	X24	Y24	Z24	X25	Y25	Z25	X26	Y26	Z26	X27	Y27	Z27	X28	Y28	Z28	X29	Y29	Z29	X30	Y30	Z30	X31	Y31	Z31	X32	Y32	Z32	X33	Y33	Z33	X34	Y34	Z34	X35	Y35	Z35	X36	Y36	Z36	X37	Y37	Z37	X38	Y38	Z38	X39	Y39	Z39	X40	Y40	Z40	X41	Y41	Z41	X42	Y42	Z42	X43	Y43	Z43	X44	Y44	Z44	X45	Y45	Z45	X46	Y46	Z46	X47	Y47	Z47	X48	Y48	Z48	X49	Y49	Z49	X50	Y50	Z50	X51	Y51	Z51	

86	0.85000000	1075.53587	580.45060	-59.07571	1059.85960	500.72955	-48.70831	803.68906	249.96638	-98.77890	734.25626	246.48502	-155.52063	865.44907	102.33021	-54.36054	916.65392	102.54320	-106.12853	890.99244	538.56666	-348.25028	922.61035	419.54974	-347.69517	871.13030	93.87893	-305.30649	798.88434	53.54581	-270.28990	1043.34567	61.01293	-257.20912	1029.40060	31.61854	-323.84039	989.20183	411.44608	-49.54537	997.43495	549.00443	-43.35215	921.32393	462.71354	-52.84357	834.45241	425.80300	-371.99223	836.56876	305.92997	-361.99266	1011.21253	886.30052	-36.33241	1071.39359	795.83075	-44.33579	1036.07613	743.57417	-18.26065	918.13204	823.72859	-37.90125	983.75756	731.07297	-32.83437	965.42518	864.44520	-383.58977	972.07752	727.91629	-368.02923	847.08944	856.41857	-394.13122	865.08027	714.12457	-383.69157	971.60180	1053.06623	-91.33386	776.49057	1087.60430	-162.71557	972.18227	1057.44423	-350.24405	773.92191	1094.04656	-266.79165	776.03979	1599.16825	-242.20104	831.81083	1557.53368	-59.40474	863.18897	1557.68721	-398.26101	924.75693	1530.24683	-197.23757	930.27976	1526.51952	-250.67565	818.59509	1289.43905	39.01853	778.65962	1192.09895	-27.28840	798.70125	1203.93671	54.84881	877.79940	1063.81491	69.64720	927.90712	959.31921	58.37017	887.49337	955.88972	80.40081	916.45774	1304.94975	-491.12752	870.50466	1200.40424	-449.19459	911.18548	1216.34500	-505.70373	1015.30926	1075.61639	-504.13084	1071.95026	995.09527	-482.56284	1046.14949	980.53983	-508.46014	889.56319	971.66003	-97.95310	888.65637	977.97014	-328.22918	903.37606	970.93622	-131.35657	899.16068	981.49119	-301.88729	
87	0.86000000	1092.69505	581.87036	-61.65766	1078.98320	501.94051	-49.82267	834.78265	238.81578	-98.02221	765.35510	230.51273	-154.59959	905.75830	95.43199	-53.33602	956.52781	98.44009	-105.45208	896.90900	538.55050	-347.07362	926.98164	419.03256	-346.74963	871.28424	94.04920	-304.80113	798.87613	53.76089	-270.17874	1043.37577	60.61623	-257.12361	1029.38758	31.54040	-323.87324	1012.55641	409.32394	-50.27087	1014.39018	547.10548	-44.41338	942.36744	457.34170	-53.27642	838.78823	426.56576	-370.48507	839.26973	306.66857	-360.87115	1024.99683	888.22546	-37.17782	1086.10159	798.43904	-45.77826	1051.84608	745.98262	-19.14910	932.38902	824.67948	-37.21662	999.34838	732.99332	-32.85465	973.44551	863.83206	-383.70481	979.33791	727.35651	-368.04172	854.79652	856.83859	-392.99920	872.02440	714.24263	-382.37541	983.49379	1053.38272	-91.93348	787.74224	1087.72937	-161.55403	981.97204	1057.05078	-350.90495	784.37668	1094.15082	-265.51662	787.82780	1599.47991	-241.88284	843.74124	1557.25064	-59.14641	874.95781	1558.26087	-398.04259	936.35934	1530.05221	-197.10549	941.93630	1526.48444	-250.52311	827.92768	1288.93881	38.82477	787.33048	1192.19501	-28.09633	807.26427	1203.78756	54.33602	883.32763	1062.20918	69.81694	931.25865	956.56740	58.89477	890.61111	954.09379	81.02251	931.30565	1306.62786	-491.44709	887.60474	1201.18051	-449.20234	927.80338	1217.83152	-506.00476	1035.60777	1079.88828	-504.40068	1094.61404	1001.11590	-482.84871	1069.04308	985.71159	-508.44244	901.41413	971.95613	-97.57974	898.45694	977.75148	-327.85119	914.95760	970.83111	-131.44132	909.43109	981.36405	-301.97115	
88	0.87000000	1108.99815	582.74213	-63.96013	1097.60459	502.54692	-50.84958	866.58956	227.01673	-97.14512	797.35303	213.86454	-153.35413	946.86973	88.63711	-52.50874	996.91973	94.58559	-105.06872	902.95378	538.43984	-345.92831	931.52945	418.45085	-345.79068	871.46688	94.21385	-304.32059	798.92485	53.93218	-270.04750	1043.41600	60.25833	-257.06027	1029.38320	31.48060	-323.90153	1035.75987	406.67693	-50.89563	1030.92475	544.34631	-45.10608	963.33148	451.15862	-53.30961	843.35405	427.26756	-369.07284	842.16750	307.35946	-359.86827	1038.50896	889.72151	-38.01527	1100.34531	800.43644	-47.10271	1066.95242	747.82788	-20.02507	946.26891	825.35531	-36.64397	1014.30019	734.42788	-33.04603	981.47788	863.12614	-383.80000	986.72369	726.70863	-368.09515	862.70312	857.02017	-391.73890	879.05270	714.29093	-381.05559	995.45243	1053.62531	-92.39733	799.10995	1087.77442	-160.36325	991.88715	1056.52168	-351.42664	794.94574	1094.21075	-264.21793	799.65366	1599.63938	-241.52070	855.77784	1556.77363	-58.85104	886.77962	1558.69628	-397.79595	947.99551	1529.67005	-196.97574	953.60415	1526.25866	-250.37042	837.32302	1288.28819	38.68321	796.11126	1192.16095	-28.80793	815.87068	1203.49278	53.88972	888.96359	1060.56894	70.06546	934.67955	953.85493	59.49141	893.91604	952.33652	81.69926	945.99174	1308.16682	-491.73607	904.48204	1201.91814	-449.14265	944.19219	1219.18846	-506.24478	1055.57170	1084.09031	-504.56392	1116.87957	1007.15095	-482.99491	1091.56309	990.87877	-508.24518	913.31088	972.18908	-97.10671	908.38651	977.42619	-327.35729	926.65404	970.57577	-131.41779	919.81270	981.14412	-301.94122	
89	0.88000000	1124.30723	583.08827	-65.89382	1115.74173	502.54151	-51.84042	899.19272	214.70970	-96.17682	830.29923	196.74092	-151.73253	988.73742	82.15678	-51.88448	1037.75362	91.16045	-104.98311	909.15954	538.23079	-344.84583	936.27243	417.79308	-344.83659	871.68869	94.37113	-303.88419	799.03120	54.05657	-269.90288	1043.48388	59.94725	-257.02003	1029.39886	31.43434	-323.92083	1058.87885	403.55359	-51.41585	1047.09283	540.74736	-45.45097	984.31897	444.18608	-52.95315	848.17753	427.89094	-367.82292	845.29491	307.98679	-359.01658	1051.69787	890.73213	-38.80318	1114.04507	801.76992	-48.31856	1081.30757	749.04478	-20.87318	959.72909	825.71580	-36.20456	1028.53549	735.36192	-33.36217	989.57054	862.32050	-383.86671	994.25902	725.96027	-368.14923	870.81208	857.02497	-390.42120	886.21190	714.27147	-379.79048	1007.47042	1053.78307	-92.73581	810.59626	1087.76215	-159.17452	1001.97168	1055.83519	-351.80382	805.64136	1094.22914	-262.94014	811.52063	1599.64251	-241.11673	867.89190	1556.12786	-58.51831	898.65125	1558.99133	-397.50767	959.68519	1529.12836	-196.84020	965.29775	1525.86492	-250.21700	846.80472	1287.50711	38.58622	804.99381	1192.04370	-29.38446	824.54136	1203.06875	53.50138	894.72530	1058.90351	70.37666	938.18973	951.16952	60.16335	897.42903	950.60976	82.39316	960.52737	1309.55887	-491.98892	921.18465	1202.57898	-449.03054	960.35750	1220.41991	-506.42685	1075.19969	1088.20370	-504.61577	1138.74292	1013.18568	-482.98796	1113.69452	996.01877	-507.86550	925.23176	972.36230	-96.54323	918.46431	976.98403	-326.76065	938.45223	970.19543	-131.28150	930.30930	980.82211	-301.78508	
